<?xml version="1.0" encoding="iso-8859-1"?>
<!-- Generator: Adobe Illustrator 18.0.0, SVG Export Plug-In . SVG Version: 6.00 Build 0)  -->
<!DOCTYPE svg PUBLIC "-//W3C//DTD SVG 1.1//EN" "http://www.w3.org/Graphics/SVG/1.1/DTD/svg11.dtd">
<svg version="1.1" id="Capa_1" xmlns="http://www.w3.org/2000/svg" xmlns:xlink="http://www.w3.org/1999/xlink" x="0px" y="0px"
	 viewBox="0 0 60 60" style="enable-background:new 0 0 60 60;" xml:space="preserve">
<g>
	<path d="M58.057,6.083H47.299l-8.634-4.856l-0.286-0.144h-0.262C37.501,1.083,37,1.584,37,2.2v55.599
		c0,0.616,0.501,1.118,1.117,1.118l0.319-0.016l8.566-4.818H48v4h10v-4h0.057c1.071,0,1.943-0.872,1.943-1.943V8.026
		C60,6.955,59.128,6.083,58.057,6.083z M41,25c-0.553,0-1-0.447-1-1s0.447-1,1-1c2.212,0,4.011,1.799,4.011,4.011v5.979
		C45.011,35.201,43.212,37,41,37c-0.553,0-1-0.447-1-1s0.447-1,1-1c1.108,0,2.011-0.902,2.011-2.011v-5.979
		C43.011,25.902,42.108,25,41,25z M49.011,32.989C49.011,37.406,45.417,41,41,41c-0.553,0-1-0.447-1-1s0.447-1,1-1
		c3.314,0,6.011-2.696,6.011-6.011v-5.979C47.011,23.696,44.314,21,41,21c-0.553,0-1-0.447-1-1s0.447-1,1-1
		c4.417,0,8.011,3.594,8.011,8.011V32.989z M56,45.083h-1h-2c-0.553,0-1-0.447-1-1s0.447-1,1-1h2h1c0.553,0,1,0.447,1,1
		S56.553,45.083,56,45.083z M56,42.083h-1h-2c-0.553,0-1-0.447-1-1s0.447-1,1-1h2h1c0.553,0,1,0.447,1,1S56.553,42.083,56,42.083z
		 M56,20.083h-1h-2c-0.553,0-1-0.447-1-1s0.447-1,1-1h2h1c0.553,0,1,0.447,1,1S56.553,20.083,56,20.083z M56,17.083h-1h-2
		c-0.553,0-1-0.447-1-1s0.447-1,1-1h2h1c0.553,0,1,0.447,1,1S56.553,17.083,56,17.083z" fill="rgba(116, 116, 116, 0.192)"/>
	<path d="M28,6.083H1.943C0.872,6.083,0,6.955,0,8.026V52.14c0,1.071,0.872,1.943,1.943,1.943H2v4h10v-4h16v3h8v-54h-8V6.083z
		 M28,50.083H5.346C4.053,50.083,3,49.03,3,47.737V12.429c0-1.293,1.053-2.346,2.346-2.346H28V50.083z M32,5.5
		c0.827,0,1.5,0.673,1.5,1.5S32.827,8.5,32,8.5S30.5,7.827,30.5,7S31.173,5.5,32,5.5z M32,11.5c0.827,0,1.5,0.673,1.5,1.5
		s-0.673,1.5-1.5,1.5s-1.5-0.673-1.5-1.5S31.173,11.5,32,11.5z M32,17.5c0.827,0,1.5,0.673,1.5,1.5s-0.673,1.5-1.5,1.5
		s-1.5-0.673-1.5-1.5S31.173,17.5,32,17.5z M32,39.5c0.827,0,1.5,0.673,1.5,1.5s-0.673,1.5-1.5,1.5s-1.5-0.673-1.5-1.5
		S31.173,39.5,32,39.5z M32,45.5c0.827,0,1.5,0.673,1.5,1.5s-0.673,1.5-1.5,1.5s-1.5-0.673-1.5-1.5S31.173,45.5,32,45.5z M32,51.5
		c0.827,0,1.5,0.673,1.5,1.5s-0.673,1.5-1.5,1.5s-1.5-0.673-1.5-1.5S31.173,51.5,32,51.5z" fill="rgba(116, 116, 116, 0.192)"/>
</g>
<g>
</g>
<g>
</g>
<g>
</g>
<g>
</g>
<g>
</g>
<g>
</g>
<g>
</g>
<g>
</g>
<g>
</g>
<g>
</g>
<g>
</g>
<g>
</g>
<g>
</g>
<g>
</g>
<g>
</g>
</svg>
